<svg width="21" height="19" viewBox="0 0 21 19" fill="none" xmlns="http://www.w3.org/2000/svg">
<path d="M20.5 8.70496C20.2242 8.70589 20.0008 8.92902 20 9.20496V15.515C19.9977 16.3423 19.3273 17.0125 18.5 17.015H2.5C1.67266 17.0125 1.00234 16.3423 1 15.515V9.20496C1 8.92886 0.77625 8.70496 0.5 8.70496C0.22375 8.70496 0 8.92886 0 9.20496V15.515C0.000625 16.8954 1.11953 18.0143 2.5 18.015H18.5C19.8805 18.0143 20.9994 16.8954 21 15.515V9.20496C20.9992 8.92902 20.7758 8.70589 20.5 8.70496Z" fill="black"/>
<path d="M6.83995 11.56L10.0199 14.285C10.0228 14.285 10.0249 14.2873 10.0249 14.29L10.0399 14.305C10.0449 14.31 10.0549 14.315 10.0599 14.32C10.0648 14.3263 10.072 14.3298 10.0799 14.33C10.0849 14.335 10.0949 14.34 10.0999 14.345C10.1049 14.35 10.1149 14.35 10.1199 14.355C10.1249 14.36 10.1349 14.36 10.1449 14.365C10.1499 14.37 10.1599 14.37 10.1649 14.375C10.1749 14.38 10.1799 14.38 10.1899 14.385C10.1949 14.385 10.2049 14.39 10.2099 14.39C10.2199 14.39 10.2249 14.395 10.2349 14.395C10.2399 14.395 10.2499 14.4 10.2549 14.4C10.2649 14.4 10.2749 14.405 10.2849 14.405H10.4149C10.4249 14.405 10.4349 14.4 10.4449 14.4C10.4499 14.4 10.4599 14.395 10.4649 14.395C10.4749 14.395 10.4799 14.39 10.4899 14.39C10.4949 14.39 10.5049 14.385 10.5099 14.385C10.5199 14.38 10.5249 14.38 10.5349 14.375C10.5399 14.37 10.5499 14.37 10.5549 14.365C10.5649 14.36 10.5699 14.36 10.5799 14.355C10.5849 14.35 10.5949 14.35 10.5999 14.345C10.6049 14.34 10.6149 14.335 10.6199 14.33C10.6249 14.325 10.6299 14.325 10.6399 14.32C10.6449 14.315 10.6549 14.31 10.6599 14.305L10.6749 14.29C10.6778 14.29 10.6799 14.2877 10.6799 14.285L13.8599 11.56C14.0699 11.3805 14.0945 11.0648 13.9149 10.855C13.7356 10.6452 13.42 10.6205 13.2099 10.8L10.8499 12.82V0.5C10.8499 0.22375 10.6262 0 10.3499 0C10.0737 0 9.84995 0.22375 9.84995 0.5V12.82L7.48995 10.8C7.27995 10.6205 6.96433 10.6452 6.78495 10.855C6.60542 11.0648 6.62995 11.3805 6.83995 11.56Z" fill="black"/>
</svg>
