<svg width="25" height="23" viewBox="0 0 25 23" fill="none" xmlns="http://www.w3.org/2000/svg">
<path d="M18.4896 0C15.7166 0 13.4262 2.57568 12.5 3.79131C11.5738 2.57568 9.28345 0 6.5104 0C2.92056 0 0 3.30049 0 7.35679C0 9.56982 0.878418 11.6323 2.41597 13.0437C2.43833 13.0824 2.46582 13.118 2.49785 13.15L12.1323 22.7646C12.234 22.8658 12.3667 22.9167 12.5 22.9167C12.6333 22.9167 12.7665 22.8658 12.8683 22.7641L22.8231 12.8128L22.9258 12.7131C23.0072 12.6363 23.0876 12.5585 23.1776 12.4588C23.2152 12.4217 23.2462 12.38 23.2702 12.3347C24.3866 10.9675 25 9.2041 25 7.35679C25 3.30049 22.0795 0 18.4896 0ZM22.4035 11.7488C22.3892 11.7656 22.376 11.7833 22.3643 11.8017C22.3155 11.8576 22.2621 11.9069 22.2092 11.9573L12.4995 21.6599L3.35288 12.5315C3.32339 12.4735 3.28218 12.4207 3.23184 12.3764C1.8397 11.1608 1.04165 9.33125 1.04165 7.35679C1.04165 3.87471 3.49478 1.0417 6.5104 1.0417C9.49199 1.0417 12.0366 4.93066 12.0621 4.96982C12.2543 5.26685 12.7457 5.26685 12.9379 4.96982C12.9634 4.93066 15.508 1.0417 18.4896 1.0417C21.5052 1.0417 23.9583 3.87476 23.9583 7.35679C23.9583 8.99761 23.406 10.5576 22.4035 11.7488Z" fill="white"/>
</svg>
