<svg width="86" height="33" viewBox="0 0 86 33" fill="none" xmlns="http://www.w3.org/2000/svg">
<path d="M30.0264 0H3.65161V23.9931H30.0264V0Z" fill="#FFF200"/>
<path d="M7.31088 15.2687L6.36572 18.0924H5.15063L8.24289 9.11548H9.66086L12.7667 18.0924H11.5109L10.5385 15.2687H7.31088ZM10.2949 14.363L9.40363 11.7793C9.2012 11.1933 9.06623 10.6607 8.93082 10.1412H8.90365C8.76869 10.6738 8.62015 11.22 8.44443 11.7662L7.55315 14.3634H10.2949V14.363Z" fill="#3E3F41"/>
<path d="M14.7793 9.23493C15.3734 9.11491 16.224 9.04834 17.0342 9.04834C18.29 9.04834 19.1002 9.27478 19.6672 9.7811C20.1264 10.1805 20.3827 10.7933 20.3827 11.4862C20.3827 12.6714 19.6264 13.4576 18.6677 13.7769V13.8167C19.3696 14.0563 19.7886 14.6957 20.0046 15.6282C20.3017 16.8804 20.5177 17.7459 20.7065 18.0923H19.4915C19.3429 17.8392 19.1405 17.0666 18.8837 15.948C18.6138 14.7093 18.1274 14.2429 17.0609 14.203H15.9536V18.0923H14.7788V9.23493H14.7793ZM15.954 13.324H17.156C18.4118 13.324 19.2084 12.6447 19.2084 11.6189C19.2084 10.46 18.3579 9.9541 17.1157 9.94051C16.5487 9.94051 16.1433 9.99395 15.9545 10.0474V13.324H15.954Z" fill="#3E3F41"/>
<path d="M24.5698 10.1003H21.8018V9.11487H28.5397V10.1003H25.7581V18.0918H24.5698V10.1003Z" fill="#3E3F41"/>
<path d="M40.6941 17.6925C40.1674 17.8791 39.1276 18.1852 37.8989 18.1852C36.5217 18.1852 35.3872 17.8388 34.496 16.9996C33.7129 16.2537 33.2266 15.0549 33.2266 13.6565C33.2401 10.9795 35.1033 9.02124 38.1552 9.02124C39.2086 9.02124 40.032 9.24768 40.4237 9.43381L40.1402 10.3799C39.6543 10.1666 39.0465 9.99357 38.1281 9.99357C35.9135 9.99357 34.4688 11.3522 34.4688 13.603C34.4688 15.8805 35.8596 17.2261 37.9795 17.2261C38.749 17.2261 39.2757 17.1196 39.546 16.9865V14.3095H37.696V13.377H40.6936L40.6941 17.6925Z" fill="white"/>
<path d="M44.638 15.2687L43.6929 18.0924H42.4778L45.57 9.11548H46.988L50.0939 18.0924H48.838L47.8657 15.2687H44.638ZM47.622 14.363L46.7308 11.7793C46.5283 11.1933 46.3934 10.6607 46.258 10.1412H46.2308C46.0958 10.6738 45.9473 11.22 45.7716 11.7662L44.8803 14.3634H47.622V14.363Z" fill="white"/>
<path d="M52.1064 9.11487H53.2812V17.12H57.1701V18.0923H52.1064V9.11487Z" fill="white"/>
<path d="M63.8687 13.8832H60.3308V17.12H64.2735V18.0923H59.156V9.11487H64.0711V10.0872H60.3308V12.924H63.8687V13.8832Z" fill="white"/>
<path d="M66.4758 9.23493C67.07 9.11491 67.9205 9.04834 68.7307 9.04834C69.9865 9.04834 70.7967 9.27478 71.3637 9.7811C71.8229 10.1805 72.0793 10.7933 72.0793 11.4862C72.0793 12.6714 71.323 13.4576 70.3642 13.7769V13.8167C71.0662 14.0563 71.4851 14.6957 71.7011 15.6282C71.9982 16.8804 72.2142 17.7459 72.4031 18.0923H71.188C71.0395 17.8392 70.837 17.0666 70.5802 15.948C70.3103 14.7093 69.8239 14.2429 68.7574 14.203H67.6501V18.0923H66.4753V9.23493H66.4758ZM67.6506 13.324H68.8525C70.1083 13.324 70.905 12.6447 70.905 11.6189C70.905 10.46 70.0544 9.9541 68.8117 9.94051C68.2447 9.94051 67.8394 9.99395 67.6506 10.0474V13.324Z" fill="white"/>
<path d="M76.2935 18.0923V14.2827L73.4172 9.11487H74.7541L76.0371 11.5921C76.3881 12.2714 76.6585 12.8176 76.942 13.4435H76.9692C77.2255 12.8575 77.5362 12.2714 77.8872 11.5921L79.1969 9.11487H80.5338L77.4823 14.2695V18.0923H76.2935Z" fill="white"/>
<path d="M31.0213 27.5427C31.2844 27.7026 31.6698 27.8357 32.0747 27.8357C32.6757 27.8357 33.0271 27.5228 33.0271 27.0699C33.0271 26.6506 32.7844 26.4105 32.1698 26.1778C31.4266 25.9183 30.9674 25.5387 30.9674 24.9061C30.9674 24.2068 31.5548 23.6874 32.4393 23.6874C32.9053 23.6874 33.2431 23.7938 33.4456 23.907L33.2834 24.3798C33.1344 24.3001 32.8306 24.167 32.4189 24.167C31.7975 24.167 31.5611 24.5334 31.5611 24.8395C31.5611 25.2589 31.8378 25.4654 32.466 25.705C33.2359 25.998 33.6276 26.3643 33.6276 27.0233C33.6276 27.7157 33.1077 28.3149 32.0335 28.3149C31.5947 28.3149 31.1151 28.1885 30.8723 28.0287L31.0213 27.5427Z" fill="white"/>
<path d="M35.5039 26.8368L35.0311 28.2484H34.4233L35.9699 23.7609H36.6791L38.2325 28.2484H37.6044L37.118 26.8368H35.5039ZM36.9961 26.3844L36.5505 25.0928C36.4495 24.7998 36.3816 24.5335 36.3141 24.274H36.3005C36.2331 24.5403 36.1588 24.8134 36.0709 25.086L35.6253 26.3844H36.9961Z" fill="white"/>
<path d="M39.2368 28.2484V23.7609H39.8785L41.3377 26.0311C41.6751 26.5569 41.9382 27.0297 42.1547 27.4894L42.1683 27.4831C42.1144 26.8839 42.1008 26.3377 42.1008 25.6385V23.7609H42.6547V28.2484H42.0605L40.6149 25.9714C40.2975 25.4718 39.994 24.9592 39.764 24.4732L39.744 24.48C39.7776 25.0457 39.7911 25.5855 39.7911 26.331V28.2484H39.2368Z" fill="white"/>
<path d="M45.7852 23.7609H48.2366V24.2468H46.373V25.7381H48.0953V26.2177H46.373V28.2484H45.7856V23.7609H45.7852Z" fill="white"/>
<path d="M49.4104 23.8206C49.7075 23.7608 50.1327 23.7273 50.5381 23.7273C51.1662 23.7273 51.5715 23.8405 51.855 24.0932C52.0847 24.2929 52.2128 24.5995 52.2128 24.9455C52.2128 25.5384 51.8347 25.931 51.3555 26.0909V26.1108C51.7065 26.2308 51.9157 26.5505 52.024 27.0166C52.1725 27.6424 52.2803 28.0754 52.3754 28.2484H51.7672C51.6929 28.122 51.5919 27.7357 51.4633 27.1764C51.3283 26.5573 51.0851 26.3241 50.5517 26.3042H49.9978V28.2484H49.4104V23.8206ZM49.9978 25.8649H50.5988C51.2269 25.8649 51.625 25.5252 51.625 25.0126C51.625 24.4333 51.1997 24.1802 50.5784 24.1738C50.2949 24.1738 50.092 24.2006 49.9978 24.2268V25.8649Z" fill="white"/>
<path d="M54.1499 26.8368L53.6771 28.2484H53.0693L54.6159 23.7609H55.3251L56.8785 28.2484H56.2504L55.764 26.8368H54.1499ZM55.6421 26.3844L55.1965 25.0928C55.0955 24.7998 55.0276 24.5335 54.9601 24.274H54.9465C54.879 24.5403 54.8048 24.8134 54.7169 25.086L54.2713 26.3844H55.6421Z" fill="white"/>
<path d="M57.8826 28.2484V23.7609H58.5243L59.9835 26.0311C60.3209 26.5569 60.584 27.0297 60.8005 27.4894L60.8141 27.4831C60.7602 26.8839 60.7466 26.3377 60.7466 25.6385V23.7609H61.3004V28.2484H60.7063L59.2607 25.9714C58.9432 25.4718 58.6398 24.9592 58.4097 24.4732L58.3898 24.48C58.4233 25.0457 58.4369 25.5855 58.4369 26.331V28.2484H57.8826Z" fill="white"/>
<path d="M65.8433 28.1022C65.6272 28.2086 65.1952 28.315 64.6409 28.315C63.3579 28.315 62.3923 27.5161 62.3923 26.0443C62.3923 24.6394 63.3579 23.6875 64.7695 23.6875C65.3365 23.6875 65.6947 23.8075 65.8501 23.8872L65.7083 24.36C65.4855 24.2536 65.1676 24.1739 64.7899 24.1739C63.7224 24.1739 63.0137 24.8464 63.0137 26.0248C63.0137 27.1235 63.6554 27.8291 64.7631 27.8291C65.1209 27.8291 65.4855 27.7557 65.7219 27.6425L65.8433 28.1022Z" fill="white"/>
<path d="M67.5029 23.7609V28.2484H66.9155V23.7609H67.5029Z" fill="white"/>
<path d="M68.785 27.5429C69.0481 27.7027 69.4331 27.8359 69.8384 27.8359C70.4394 27.8359 70.7908 27.5229 70.7908 27.0701C70.7908 26.6507 70.548 26.4107 69.9335 26.1779C69.1903 25.9184 68.7311 25.5389 68.7311 24.9062C68.7311 24.207 69.3185 23.6875 70.2029 23.6875C70.669 23.6875 71.0068 23.7939 71.2092 23.9071L71.0471 24.38C70.8981 24.3002 70.5942 24.1671 70.1826 24.1671C69.5612 24.1671 69.3248 24.5335 69.3248 24.8396C69.3248 25.259 69.6015 25.4655 70.2297 25.7051C70.9996 25.9981 71.3913 26.3645 71.3913 27.0234C71.3913 27.7159 70.8714 28.315 69.7972 28.315C69.3583 28.315 68.8787 28.1887 68.636 28.0288L68.785 27.5429Z" fill="white"/>
<path d="M75.7129 28.1022C75.4969 28.2086 75.0648 28.315 74.5105 28.315C73.2275 28.315 72.262 27.5161 72.262 26.0443C72.262 24.6394 73.2275 23.6875 74.6387 23.6875C75.2057 23.6875 75.5639 23.8075 75.7192 23.8872L75.5775 24.36C75.3547 24.2536 75.0368 24.1739 74.6591 24.1739C73.5916 24.1739 72.8829 24.8464 72.8829 26.0248C72.8829 27.1235 73.5246 27.8291 74.6323 27.8291C74.9901 27.8291 75.3547 27.7557 75.5911 27.6425L75.7129 28.1022Z" fill="white"/>
<path d="M80.5332 25.9581C80.5332 27.5025 79.5808 28.3217 78.4196 28.3217C77.2173 28.3217 76.3735 27.4028 76.3735 26.0447C76.3735 24.6199 77.2716 23.6879 78.4871 23.6879C79.7298 23.6874 80.5332 24.6262 80.5332 25.9581ZM77.0017 26.0311C77.0017 26.9898 77.5284 27.8489 78.4532 27.8489C79.3856 27.8489 79.9123 27.0034 79.9123 25.9849C79.9123 25.0927 79.4395 24.1607 78.4604 24.1607C77.4876 24.1602 77.0017 25.0456 77.0017 26.0311Z" fill="white"/>
<path d="M37.6676 32.3354H33.1379V32.9079H37.6676V32.3354Z" fill="white"/>
<path d="M81.1895 15.436H85V2.28259H1V26.3685H29.0577" stroke="white" stroke-width="0.7702" stroke-miterlimit="10"/>
</svg>
