<svg width="30" height="30" viewBox="0 0 30 30" fill="none" xmlns="http://www.w3.org/2000/svg">
<path fill-rule="evenodd" clip-rule="evenodd" d="M3.59835 3.59835C4.30161 2.89509 5.25544 2.5 6.25 2.5H10C10.6904 2.5 11.25 3.05964 11.25 3.75C11.25 4.44036 10.6904 5 10 5H6.25C5.91848 5 5.60054 5.1317 5.36612 5.36612C5.1317 5.60054 5 5.91848 5 6.25V10C5 10.6904 4.44036 11.25 3.75 11.25C3.05964 11.25 2.5 10.6904 2.5 10V6.25C2.5 5.25544 2.89509 4.30161 3.59835 3.59835ZM18.75 3.75C18.75 3.05964 19.3096 2.5 20 2.5H23.75C24.7446 2.5 25.6984 2.89509 26.4017 3.59835C27.1049 4.30161 27.5 5.25544 27.5 6.25V10C27.5 10.6904 26.9404 11.25 26.25 11.25C25.5596 11.25 25 10.6904 25 10V6.25C25 5.91848 24.8683 5.60054 24.6339 5.36612C24.3995 5.1317 24.0815 5 23.75 5H20C19.3096 5 18.75 4.44036 18.75 3.75ZM3.75 18.75C4.44036 18.75 5 19.3096 5 20V23.75C5 24.0815 5.1317 24.3995 5.36612 24.6339C5.60054 24.8683 5.91848 25 6.25 25H10C10.6904 25 11.25 25.5596 11.25 26.25C11.25 26.9404 10.6904 27.5 10 27.5H6.25C5.25544 27.5 4.30161 27.1049 3.59835 26.4017C2.89509 25.6984 2.5 24.7446 2.5 23.75V20C2.5 19.3096 3.05964 18.75 3.75 18.75ZM26.25 18.75C26.9404 18.75 27.5 19.3096 27.5 20V23.75C27.5 24.7446 27.1049 25.6984 26.4017 26.4017C25.6984 27.1049 24.7446 27.5 23.75 27.5H20C19.3096 27.5 18.75 26.9404 18.75 26.25C18.75 25.5596 19.3096 25 20 25H23.75C24.0815 25 24.3995 24.8683 24.6339 24.6339C24.8683 24.3995 25 24.0815 25 23.75V20C25 19.3096 25.5596 18.75 26.25 18.75Z" fill="white"/>
</svg>
